<?xml version="1.0" encoding="UTF-8"?>
<svg xmlns="http://www.w3.org/2000/svg" xmlns:xlink="http://www.w3.org/1999/xlink" width="360pt" height="503.999982pt" viewBox="0 0 360 503.999982" version="1.2">
<defs>
<clipPath id="clip1">
  <path d="M 56.378906 128.378906 L 303.878906 128.378906 L 303.878906 375.878906 L 56.378906 375.878906 Z M 56.378906 128.378906 "/>
</clipPath>
</defs>
<g id="surface1">
<path style=" stroke:none;fill-rule:nonzero;fill:rgb(100%,74.119568%,29.019165%);fill-opacity:1;" d="M 180.132812 318.726562 C 162.34375 318.726562 145.621094 311.800781 133.042969 299.222656 C 120.464844 286.644531 113.535156 269.917969 113.535156 252.128906 C 113.535156 234.34375 120.464844 217.617188 133.042969 205.039062 C 145.621094 192.460938 162.34375 185.535156 180.132812 185.535156 C 197.917969 185.535156 214.644531 192.460938 227.222656 205.039062 C 239.800781 217.617188 246.726562 234.34375 246.726562 252.128906 C 246.726562 269.917969 239.800781 286.644531 227.222656 299.222656 C 214.644531 311.800781 197.917969 318.726562 180.132812 318.726562 Z M 180.132812 186.167969 C 143.757812 186.167969 114.167969 215.757812 114.167969 252.128906 C 114.167969 288.503906 143.757812 318.09375 180.132812 318.09375 C 216.503906 318.09375 246.09375 288.503906 246.09375 252.128906 C 246.09375 215.757812 216.503906 186.167969 180.132812 186.167969 Z M 180.132812 186.167969 "/>
<path style=" stroke:none;fill-rule:nonzero;fill:rgb(100%,74.119568%,29.019165%);fill-opacity:1;" d="M 180.132812 307.160156 C 165.433594 307.160156 151.613281 301.4375 141.21875 291.042969 C 130.824219 280.648438 125.101562 266.832031 125.101562 252.128906 C 125.101562 237.429688 130.824219 223.613281 141.21875 213.21875 C 151.613281 202.824219 165.433594 197.101562 180.132812 197.101562 C 194.832031 197.101562 208.648438 202.824219 219.042969 213.21875 C 229.4375 223.613281 235.160156 237.429688 235.160156 252.128906 C 235.160156 266.832031 229.4375 280.648438 219.042969 291.042969 C 208.648438 301.4375 194.832031 307.160156 180.132812 307.160156 Z M 180.132812 197.621094 C 150.074219 197.621094 125.621094 222.074219 125.621094 252.128906 C 125.621094 282.1875 150.074219 306.640625 180.132812 306.640625 C 210.1875 306.640625 234.640625 282.1875 234.640625 252.128906 C 234.640625 222.074219 210.1875 197.621094 180.132812 197.621094 Z M 180.132812 197.621094 "/>
<path style=" stroke:none;fill-rule:nonzero;fill:rgb(100%,74.119568%,29.019165%);fill-opacity:1;" d="M 180.132812 294.800781 C 156.601562 294.800781 137.460938 275.660156 137.460938 252.128906 C 137.460938 228.601562 156.601562 209.460938 180.132812 209.460938 C 203.660156 209.460938 222.800781 228.601562 222.800781 252.128906 C 222.800781 275.660156 203.660156 294.800781 180.132812 294.800781 Z M 180.132812 209.867188 C 156.828125 209.867188 137.867188 228.828125 137.867188 252.128906 C 137.867188 275.4375 156.828125 294.394531 180.132812 294.394531 C 203.4375 294.394531 222.394531 275.4375 222.394531 252.128906 C 222.394531 228.828125 203.4375 209.867188 180.132812 209.867188 Z M 180.132812 209.867188 "/>
<path style=" stroke:none;fill-rule:nonzero;fill:rgb(100%,74.119568%,29.019165%);fill-opacity:1;" d="M 180.132812 354.886719 C 152.683594 354.886719 126.878906 344.199219 107.472656 324.789062 C 88.0625 305.382812 77.375 279.578125 77.375 252.128906 C 77.375 224.683594 88.0625 198.878906 107.472656 179.472656 C 126.878906 160.0625 152.683594 149.375 180.132812 149.375 C 207.578125 149.375 233.382812 160.0625 252.789062 179.472656 C 272.199219 198.878906 282.886719 224.683594 282.886719 252.128906 C 282.886719 279.578125 272.199219 305.382812 252.789062 324.789062 C 233.382812 344.199219 207.578125 354.886719 180.132812 354.886719 Z M 180.132812 150.347656 C 124.007812 150.347656 78.347656 196.007812 78.347656 252.128906 C 78.347656 308.253906 124.007812 353.914062 180.132812 353.914062 C 236.253906 353.914062 281.914062 308.253906 281.914062 252.128906 C 281.914062 196.007812 236.253906 150.347656 180.132812 150.347656 Z M 180.132812 150.347656 "/>
<path style=" stroke:none;fill-rule:nonzero;fill:rgb(100%,74.119568%,29.019165%);fill-opacity:1;" d="M 180.132812 343.488281 C 155.730469 343.488281 132.789062 333.984375 115.53125 316.730469 C 98.277344 299.472656 88.773438 276.535156 88.773438 252.128906 C 88.773438 227.730469 98.277344 204.785156 115.53125 187.53125 C 132.789062 170.277344 155.730469 160.773438 180.132812 160.773438 C 204.535156 160.773438 227.472656 170.277344 244.730469 187.53125 C 261.984375 204.785156 271.488281 227.726562 271.488281 252.128906 C 271.488281 276.535156 261.984375 299.472656 244.730469 316.730469 C 227.472656 333.984375 204.535156 343.488281 180.132812 343.488281 Z M 180.132812 161.640625 C 130.234375 161.640625 89.640625 202.234375 89.640625 252.128906 C 89.640625 302.027344 130.234375 342.621094 180.132812 342.621094 C 230.027344 342.621094 270.621094 302.027344 270.621094 252.128906 C 270.621094 202.234375 230.027344 161.640625 180.132812 161.640625 Z M 180.132812 161.640625 "/>
<path style=" stroke:none;fill-rule:nonzero;fill:rgb(100%,74.119568%,29.019165%);fill-opacity:1;" d="M 180.132812 331.445312 C 136.398438 331.445312 100.816406 295.867188 100.816406 252.128906 C 100.816406 208.394531 136.398438 172.816406 180.132812 172.816406 C 223.867188 172.816406 259.445312 208.394531 259.445312 252.128906 C 259.445312 295.867188 223.867188 331.445312 180.132812 331.445312 Z M 180.132812 173.566406 C 136.8125 173.566406 101.566406 208.8125 101.566406 252.128906 C 101.566406 295.449219 136.8125 330.695312 180.132812 330.695312 C 223.449219 330.695312 258.695312 295.449219 258.695312 252.128906 C 258.695312 208.8125 223.449219 173.566406 180.132812 173.566406 Z M 180.132812 173.566406 "/>
<g clip-path="url(#clip1)" clip-rule="nonzero">
<path style=" stroke:none;fill-rule:nonzero;fill:rgb(100%,74.119568%,29.019165%);fill-opacity:1;" d="M 180.132812 375.878906 C 147.078125 375.878906 116 363.007812 92.625 339.636719 C 69.253906 316.261719 56.382812 285.1875 56.382812 252.128906 C 56.382812 219.074219 69.253906 188 92.625 164.625 C 116 141.253906 147.078125 128.378906 180.132812 128.378906 C 213.1875 128.378906 244.261719 141.253906 267.636719 164.625 C 291.007812 188 303.878906 219.074219 303.878906 252.128906 C 303.878906 285.1875 291.007812 316.261719 267.636719 339.636719 C 244.261719 363.007812 213.1875 375.878906 180.132812 375.878906 Z M 180.132812 129.554688 C 112.542969 129.554688 57.554688 184.542969 57.554688 252.128906 C 57.554688 319.71875 112.542969 374.707031 180.132812 374.707031 C 247.71875 374.707031 302.707031 319.71875 302.707031 252.128906 C 302.707031 184.542969 247.71875 129.554688 180.132812 129.554688 Z M 180.132812 129.554688 "/>
</g>
<path style=" stroke:none;fill-rule:nonzero;fill:rgb(100%,74.119568%,29.019165%);fill-opacity:1;" d="M 180.132812 365.050781 C 117.867188 365.050781 67.214844 314.394531 67.214844 252.128906 C 67.214844 189.867188 117.867188 139.210938 180.132812 139.210938 C 242.394531 139.210938 293.050781 189.867188 293.050781 252.128906 C 293.046875 314.394531 242.394531 365.050781 180.132812 365.050781 Z M 180.132812 140.285156 C 118.457031 140.285156 68.285156 190.457031 68.285156 252.128906 C 68.285156 313.804688 118.457031 363.980469 180.132812 363.980469 C 241.804688 363.980469 291.976562 313.804688 291.976562 252.128906 C 291.976562 190.457031 241.804688 140.285156 180.132812 140.285156 Z M 180.132812 140.285156 "/>
</g>
</svg>
